# xmcd
#
# Track frame offsets:
#	150
#	15041
#	29411
#	82667
#	105993
#	138089
#	159025
#	185354
#	213832
#	236731
#	249492
#	260742
#	290100
#	307900
#	322333
#
# Disc length: 4422 seconds
#
# Revision: 1
# Processed by: cddbd v1.5.2PL0 Copyright (c) Steve Scherf et al.
# Submitted via: audiograbber 1.83.01
#
DISCID=ba11440f
DTITLE=Bill Nelson - And We Fell Into A Dream
DYEAR=1900
DGENRE=
TTITLE0=And We Fell Into A Dream
TTITLE1=Somewhere In Far Tomorrow
TTITLE2=Fever Dream Of The Starlight Man
TTITLE3=The Raindrop Collector
TTITLE4=Night Song Of The Last Tram
TTITLE5=Dreamt I Was Floating In A Summer Sky
TTITLE6=The House At The End Of Memory Lane
TTITLE7=A Line Of Trees Gives Rise To Thought
TTITLE8=Blue Amorini
TTITLE9=Here Comes The Rain Comets
TTITLE10=Cloudy Billows Kiss The Moon
TTITLE11=The Rose Covered Cotage At The End Of Time
TTITLE12=Streamlined Train, Passing Fast
TTITLE13=At Home In The Clouds 
TTITLE14=Chapel Of Chimes
EXTD=
EXTT0=
EXTT1=
EXTT2=
EXTT3=
EXTT4=
EXTT5=
EXTT6=
EXTT7=
EXTT8=
EXTT9=
EXTT10=
EXTT11=
EXTT12=
EXTT13=
EXTT14=
PLAYORDER=
